<mxfile host="app.diagrams.net" modified="2023-05-08T14:59:40.401Z" agent="Mozilla/5.0 (Windows NT 10.0; Win64; x64) AppleWebKit/537.36 (KHTML, like Gecko) Chrome/112.0.0.0 Safari/537.36" etag="KrOLA0sMo_ijm3o0fFa8" version="21.2.9" type="github">
  <diagram id="C5RBs43oDa-KdzZeNtuy" name="Page-1">
    <mxGraphModel dx="7390" dy="3076" grid="1" gridSize="10" guides="1" tooltips="1" connect="1" arrows="1" fold="1" page="1" pageScale="1" pageWidth="827" pageHeight="1169" math="0" shadow="0">
      <root>
        <mxCell id="WIyWlLk6GJQsqaUBKTNV-0" />
        <mxCell id="WIyWlLk6GJQsqaUBKTNV-1" parent="WIyWlLk6GJQsqaUBKTNV-0" />
        <mxCell id="HExbxud2L75M18XRyW7S-3" style="edgeStyle=orthogonalEdgeStyle;rounded=0;orthogonalLoop=1;jettySize=auto;html=1;" edge="1" parent="WIyWlLk6GJQsqaUBKTNV-1" source="HExbxud2L75M18XRyW7S-0">
          <mxGeometry relative="1" as="geometry">
            <mxPoint x="400" y="120" as="targetPoint" />
          </mxGeometry>
        </mxCell>
        <mxCell id="HExbxud2L75M18XRyW7S-0" value="Эхлэл" style="ellipse;whiteSpace=wrap;html=1;" vertex="1" parent="WIyWlLk6GJQsqaUBKTNV-1">
          <mxGeometry x="340" width="120" height="80" as="geometry" />
        </mxCell>
        <mxCell id="HExbxud2L75M18XRyW7S-30" style="edgeStyle=orthogonalEdgeStyle;rounded=0;orthogonalLoop=1;jettySize=auto;html=1;" edge="1" parent="WIyWlLk6GJQsqaUBKTNV-1" source="HExbxud2L75M18XRyW7S-5" target="HExbxud2L75M18XRyW7S-14">
          <mxGeometry relative="1" as="geometry" />
        </mxCell>
        <mxCell id="HExbxud2L75M18XRyW7S-90" style="edgeStyle=orthogonalEdgeStyle;rounded=0;orthogonalLoop=1;jettySize=auto;html=1;" edge="1" parent="WIyWlLk6GJQsqaUBKTNV-1" source="HExbxud2L75M18XRyW7S-5" target="HExbxud2L75M18XRyW7S-36">
          <mxGeometry relative="1" as="geometry" />
        </mxCell>
        <mxCell id="HExbxud2L75M18XRyW7S-92" style="edgeStyle=orthogonalEdgeStyle;rounded=0;orthogonalLoop=1;jettySize=auto;html=1;" edge="1" parent="WIyWlLk6GJQsqaUBKTNV-1" source="HExbxud2L75M18XRyW7S-5" target="HExbxud2L75M18XRyW7S-91">
          <mxGeometry relative="1" as="geometry" />
        </mxCell>
        <mxCell id="HExbxud2L75M18XRyW7S-155" style="edgeStyle=orthogonalEdgeStyle;rounded=0;orthogonalLoop=1;jettySize=auto;html=1;" edge="1" parent="WIyWlLk6GJQsqaUBKTNV-1" source="HExbxud2L75M18XRyW7S-5" target="HExbxud2L75M18XRyW7S-154">
          <mxGeometry relative="1" as="geometry" />
        </mxCell>
        <mxCell id="HExbxud2L75M18XRyW7S-5" value="Нүүр" style="rounded=0;whiteSpace=wrap;html=1;" vertex="1" parent="WIyWlLk6GJQsqaUBKTNV-1">
          <mxGeometry x="350" y="120" width="100" height="40" as="geometry" />
        </mxCell>
        <mxCell id="HExbxud2L75M18XRyW7S-28" style="edgeStyle=orthogonalEdgeStyle;rounded=0;orthogonalLoop=1;jettySize=auto;html=1;entryX=0.5;entryY=0;entryDx=0;entryDy=0;" edge="1" parent="WIyWlLk6GJQsqaUBKTNV-1" source="HExbxud2L75M18XRyW7S-14" target="HExbxud2L75M18XRyW7S-16">
          <mxGeometry relative="1" as="geometry" />
        </mxCell>
        <mxCell id="HExbxud2L75M18XRyW7S-29" style="edgeStyle=orthogonalEdgeStyle;rounded=0;orthogonalLoop=1;jettySize=auto;html=1;entryX=0.5;entryY=0;entryDx=0;entryDy=0;" edge="1" parent="WIyWlLk6GJQsqaUBKTNV-1" source="HExbxud2L75M18XRyW7S-14" target="HExbxud2L75M18XRyW7S-18">
          <mxGeometry relative="1" as="geometry">
            <Array as="points">
              <mxPoint x="-605" y="260" />
              <mxPoint x="-605" y="260" />
            </Array>
          </mxGeometry>
        </mxCell>
        <mxCell id="HExbxud2L75M18XRyW7S-31" style="edgeStyle=orthogonalEdgeStyle;rounded=0;orthogonalLoop=1;jettySize=auto;html=1;" edge="1" parent="WIyWlLk6GJQsqaUBKTNV-1" source="HExbxud2L75M18XRyW7S-14" target="HExbxud2L75M18XRyW7S-164">
          <mxGeometry relative="1" as="geometry">
            <mxPoint x="-290" y="250" as="targetPoint" />
          </mxGeometry>
        </mxCell>
        <mxCell id="HExbxud2L75M18XRyW7S-14" value="Navbar" style="rhombus;whiteSpace=wrap;html=1;" vertex="1" parent="WIyWlLk6GJQsqaUBKTNV-1">
          <mxGeometry x="-670" y="170" width="130" height="70" as="geometry" />
        </mxCell>
        <mxCell id="HExbxud2L75M18XRyW7S-158" style="edgeStyle=orthogonalEdgeStyle;rounded=0;orthogonalLoop=1;jettySize=auto;html=1;" edge="1" parent="WIyWlLk6GJQsqaUBKTNV-1" source="HExbxud2L75M18XRyW7S-16" target="HExbxud2L75M18XRyW7S-157">
          <mxGeometry relative="1" as="geometry" />
        </mxCell>
        <mxCell id="HExbxud2L75M18XRyW7S-16" value="Бидний тухай" style="rounded=0;whiteSpace=wrap;html=1;" vertex="1" parent="WIyWlLk6GJQsqaUBKTNV-1">
          <mxGeometry x="-930" y="280" width="90" height="30" as="geometry" />
        </mxCell>
        <mxCell id="HExbxud2L75M18XRyW7S-134" style="edgeStyle=orthogonalEdgeStyle;rounded=0;orthogonalLoop=1;jettySize=auto;html=1;" edge="1" parent="WIyWlLk6GJQsqaUBKTNV-1" source="HExbxud2L75M18XRyW7S-18" target="HExbxud2L75M18XRyW7S-133">
          <mxGeometry relative="1" as="geometry" />
        </mxCell>
        <mxCell id="HExbxud2L75M18XRyW7S-18" value="Холбогдох" style="rounded=0;whiteSpace=wrap;html=1;" vertex="1" parent="WIyWlLk6GJQsqaUBKTNV-1">
          <mxGeometry x="-650" y="280" width="90" height="30" as="geometry" />
        </mxCell>
        <mxCell id="HExbxud2L75M18XRyW7S-32" style="edgeStyle=orthogonalEdgeStyle;rounded=0;orthogonalLoop=1;jettySize=auto;html=1;" edge="1" parent="WIyWlLk6GJQsqaUBKTNV-1" source="HExbxud2L75M18XRyW7S-36" target="HExbxud2L75M18XRyW7S-49">
          <mxGeometry relative="1" as="geometry">
            <mxPoint x="75.00000000000045" y="320" as="targetPoint" />
          </mxGeometry>
        </mxCell>
        <mxCell id="HExbxud2L75M18XRyW7S-33" style="edgeStyle=orthogonalEdgeStyle;rounded=0;orthogonalLoop=1;jettySize=auto;html=1;" edge="1" parent="WIyWlLk6GJQsqaUBKTNV-1" source="HExbxud2L75M18XRyW7S-36" target="HExbxud2L75M18XRyW7S-79">
          <mxGeometry relative="1" as="geometry">
            <mxPoint x="235.00000000000023" y="320" as="targetPoint" />
          </mxGeometry>
        </mxCell>
        <mxCell id="HExbxud2L75M18XRyW7S-34" style="edgeStyle=orthogonalEdgeStyle;rounded=0;orthogonalLoop=1;jettySize=auto;html=1;entryX=0.5;entryY=0;entryDx=0;entryDy=0;" edge="1" parent="WIyWlLk6GJQsqaUBKTNV-1" source="HExbxud2L75M18XRyW7S-36" target="HExbxud2L75M18XRyW7S-39">
          <mxGeometry relative="1" as="geometry">
            <Array as="points">
              <mxPoint x="345" y="245" />
            </Array>
          </mxGeometry>
        </mxCell>
        <mxCell id="HExbxud2L75M18XRyW7S-35" style="edgeStyle=orthogonalEdgeStyle;rounded=0;orthogonalLoop=1;jettySize=auto;html=1;" edge="1" parent="WIyWlLk6GJQsqaUBKTNV-1" source="HExbxud2L75M18XRyW7S-36" target="HExbxud2L75M18XRyW7S-40">
          <mxGeometry relative="1" as="geometry" />
        </mxCell>
        <mxCell id="HExbxud2L75M18XRyW7S-42" style="edgeStyle=orthogonalEdgeStyle;rounded=0;orthogonalLoop=1;jettySize=auto;html=1;" edge="1" parent="WIyWlLk6GJQsqaUBKTNV-1" source="HExbxud2L75M18XRyW7S-36" target="HExbxud2L75M18XRyW7S-41">
          <mxGeometry relative="1" as="geometry" />
        </mxCell>
        <mxCell id="HExbxud2L75M18XRyW7S-36" value="Sidebar Menu" style="rhombus;whiteSpace=wrap;html=1;" vertex="1" parent="WIyWlLk6GJQsqaUBKTNV-1">
          <mxGeometry x="160" y="200" width="130" height="70" as="geometry" />
        </mxCell>
        <mxCell id="HExbxud2L75M18XRyW7S-84" style="edgeStyle=orthogonalEdgeStyle;rounded=0;orthogonalLoop=1;jettySize=auto;html=1;" edge="1" parent="WIyWlLk6GJQsqaUBKTNV-1" source="HExbxud2L75M18XRyW7S-39" target="HExbxud2L75M18XRyW7S-83">
          <mxGeometry relative="1" as="geometry" />
        </mxCell>
        <mxCell id="HExbxud2L75M18XRyW7S-39" value="Аялагчидад&amp;nbsp;&lt;br&gt;зориулсан&lt;br&gt;мэдээллийн&amp;nbsp;&lt;br&gt;сан" style="rounded=0;whiteSpace=wrap;html=1;" vertex="1" parent="WIyWlLk6GJQsqaUBKTNV-1">
          <mxGeometry x="300" y="325" width="90" height="55" as="geometry" />
        </mxCell>
        <mxCell id="HExbxud2L75M18XRyW7S-87" style="edgeStyle=orthogonalEdgeStyle;rounded=0;orthogonalLoop=1;jettySize=auto;html=1;" edge="1" parent="WIyWlLk6GJQsqaUBKTNV-1" source="HExbxud2L75M18XRyW7S-40" target="HExbxud2L75M18XRyW7S-86">
          <mxGeometry relative="1" as="geometry" />
        </mxCell>
        <mxCell id="HExbxud2L75M18XRyW7S-40" value="Дурсгалт газрууд(Хүний гараар бүтээсэн газар)" style="rounded=0;whiteSpace=wrap;html=1;" vertex="1" parent="WIyWlLk6GJQsqaUBKTNV-1">
          <mxGeometry x="414" y="320" width="90" height="60" as="geometry" />
        </mxCell>
        <mxCell id="HExbxud2L75M18XRyW7S-89" style="edgeStyle=orthogonalEdgeStyle;rounded=0;orthogonalLoop=1;jettySize=auto;html=1;" edge="1" parent="WIyWlLk6GJQsqaUBKTNV-1" source="HExbxud2L75M18XRyW7S-41" target="HExbxud2L75M18XRyW7S-88">
          <mxGeometry relative="1" as="geometry" />
        </mxCell>
        <mxCell id="HExbxud2L75M18XRyW7S-41" value="Үзэсгэлэнт газрууд (Байгалийн тогтоц)" style="rounded=0;whiteSpace=wrap;html=1;" vertex="1" parent="WIyWlLk6GJQsqaUBKTNV-1">
          <mxGeometry x="530" y="325" width="90" height="65" as="geometry" />
        </mxCell>
        <mxCell id="HExbxud2L75M18XRyW7S-72" style="edgeStyle=orthogonalEdgeStyle;rounded=0;orthogonalLoop=1;jettySize=auto;html=1;" edge="1" parent="WIyWlLk6GJQsqaUBKTNV-1" source="HExbxud2L75M18XRyW7S-49" target="HExbxud2L75M18XRyW7S-70">
          <mxGeometry relative="1" as="geometry">
            <Array as="points">
              <mxPoint x="75" y="400" />
              <mxPoint x="75" y="400" />
            </Array>
          </mxGeometry>
        </mxCell>
        <mxCell id="HExbxud2L75M18XRyW7S-49" value="21 аймаг" style="rhombus;whiteSpace=wrap;html=1;" vertex="1" parent="WIyWlLk6GJQsqaUBKTNV-1">
          <mxGeometry x="10" y="310" width="130" height="60" as="geometry" />
        </mxCell>
        <mxCell id="HExbxud2L75M18XRyW7S-75" style="edgeStyle=orthogonalEdgeStyle;rounded=0;orthogonalLoop=1;jettySize=auto;html=1;" edge="1" parent="WIyWlLk6GJQsqaUBKTNV-1" source="HExbxud2L75M18XRyW7S-70" target="HExbxud2L75M18XRyW7S-74">
          <mxGeometry relative="1" as="geometry" />
        </mxCell>
        <mxCell id="HExbxud2L75M18XRyW7S-78" style="edgeStyle=orthogonalEdgeStyle;rounded=0;orthogonalLoop=1;jettySize=auto;html=1;" edge="1" parent="WIyWlLk6GJQsqaUBKTNV-1" source="HExbxud2L75M18XRyW7S-70" target="HExbxud2L75M18XRyW7S-76">
          <mxGeometry relative="1" as="geometry" />
        </mxCell>
        <mxCell id="HExbxud2L75M18XRyW7S-70" value="Аймгуудын&lt;br&gt;жагсаалт" style="shape=cylinder3;whiteSpace=wrap;html=1;boundedLbl=1;backgroundOutline=1;size=15;" vertex="1" parent="WIyWlLk6GJQsqaUBKTNV-1">
          <mxGeometry x="45" y="420" width="65" height="90" as="geometry" />
        </mxCell>
        <mxCell id="HExbxud2L75M18XRyW7S-77" style="edgeStyle=orthogonalEdgeStyle;rounded=0;orthogonalLoop=1;jettySize=auto;html=1;" edge="1" parent="WIyWlLk6GJQsqaUBKTNV-1" source="HExbxud2L75M18XRyW7S-74" target="HExbxud2L75M18XRyW7S-76">
          <mxGeometry relative="1" as="geometry" />
        </mxCell>
        <mxCell id="HExbxud2L75M18XRyW7S-74" value="Сонгогдсон аймгийн сумдийн&amp;nbsp;&lt;br&gt;жагсаалт&amp;nbsp;" style="shape=cylinder3;whiteSpace=wrap;html=1;boundedLbl=1;backgroundOutline=1;size=15;" vertex="1" parent="WIyWlLk6GJQsqaUBKTNV-1">
          <mxGeometry x="45" y="540" width="75" height="90" as="geometry" />
        </mxCell>
        <mxCell id="HExbxud2L75M18XRyW7S-76" value="Тухайн газарийн мэдээлэл" style="shape=cylinder3;whiteSpace=wrap;html=1;boundedLbl=1;backgroundOutline=1;size=15;" vertex="1" parent="WIyWlLk6GJQsqaUBKTNV-1">
          <mxGeometry x="-70" y="480" width="70" height="90" as="geometry" />
        </mxCell>
        <mxCell id="HExbxud2L75M18XRyW7S-82" style="edgeStyle=orthogonalEdgeStyle;rounded=0;orthogonalLoop=1;jettySize=auto;html=1;entryX=0.494;entryY=0.371;entryDx=0;entryDy=0;entryPerimeter=0;" edge="1" parent="WIyWlLk6GJQsqaUBKTNV-1" source="HExbxud2L75M18XRyW7S-79" target="HExbxud2L75M18XRyW7S-80">
          <mxGeometry relative="1" as="geometry" />
        </mxCell>
        <mxCell id="HExbxud2L75M18XRyW7S-79" value="Хамгийн их&amp;nbsp;&amp;nbsp;" style="rhombus;whiteSpace=wrap;html=1;" vertex="1" parent="WIyWlLk6GJQsqaUBKTNV-1">
          <mxGeometry x="150" y="300" width="140" height="70" as="geometry" />
        </mxCell>
        <mxCell id="HExbxud2L75M18XRyW7S-80" value="Сүүлийн үед хамгийн их зочилсон газрууд" style="shape=cylinder3;whiteSpace=wrap;html=1;boundedLbl=1;backgroundOutline=1;size=15;" vertex="1" parent="WIyWlLk6GJQsqaUBKTNV-1">
          <mxGeometry x="180" y="420" width="75" height="90" as="geometry" />
        </mxCell>
        <mxCell id="HExbxud2L75M18XRyW7S-83" value="Аялалд&amp;nbsp;&lt;br&gt;гарахад&lt;br&gt;зориулсан&lt;br&gt;мэдээлэл" style="shape=cylinder3;whiteSpace=wrap;html=1;boundedLbl=1;backgroundOutline=1;size=15;" vertex="1" parent="WIyWlLk6GJQsqaUBKTNV-1">
          <mxGeometry x="315" y="430" width="60" height="90" as="geometry" />
        </mxCell>
        <mxCell id="HExbxud2L75M18XRyW7S-86" value="Үйлчилгээний&lt;br&gt;газрууд&lt;br&gt;( Дурсгалт хөшөө барилга&lt;br&gt;байгууламж)&lt;br&gt;&lt;br&gt;" style="shape=cylinder3;whiteSpace=wrap;html=1;boundedLbl=1;backgroundOutline=1;size=15;" vertex="1" parent="WIyWlLk6GJQsqaUBKTNV-1">
          <mxGeometry x="400" y="420" width="89" height="120" as="geometry" />
        </mxCell>
        <mxCell id="HExbxud2L75M18XRyW7S-104" style="edgeStyle=orthogonalEdgeStyle;rounded=0;orthogonalLoop=1;jettySize=auto;html=1;" edge="1" parent="WIyWlLk6GJQsqaUBKTNV-1" source="HExbxud2L75M18XRyW7S-88" target="HExbxud2L75M18XRyW7S-102">
          <mxGeometry relative="1" as="geometry">
            <Array as="points">
              <mxPoint x="577" y="530" />
              <mxPoint x="519" y="530" />
            </Array>
          </mxGeometry>
        </mxCell>
        <mxCell id="HExbxud2L75M18XRyW7S-105" style="edgeStyle=orthogonalEdgeStyle;rounded=0;orthogonalLoop=1;jettySize=auto;html=1;" edge="1" parent="WIyWlLk6GJQsqaUBKTNV-1" source="HExbxud2L75M18XRyW7S-88" target="HExbxud2L75M18XRyW7S-103">
          <mxGeometry relative="1" as="geometry" />
        </mxCell>
        <mxCell id="HExbxud2L75M18XRyW7S-88" value="хөвсгөл нуур алтай таван богд гэх мэт" style="shape=cylinder3;whiteSpace=wrap;html=1;boundedLbl=1;backgroundOutline=1;size=15;" vertex="1" parent="WIyWlLk6GJQsqaUBKTNV-1">
          <mxGeometry x="545" y="420" width="65" height="90" as="geometry" />
        </mxCell>
        <mxCell id="HExbxud2L75M18XRyW7S-96" style="edgeStyle=orthogonalEdgeStyle;rounded=0;orthogonalLoop=1;jettySize=auto;html=1;" edge="1" parent="WIyWlLk6GJQsqaUBKTNV-1" source="HExbxud2L75M18XRyW7S-91" target="HExbxud2L75M18XRyW7S-93">
          <mxGeometry relative="1" as="geometry" />
        </mxCell>
        <mxCell id="HExbxud2L75M18XRyW7S-98" style="edgeStyle=orthogonalEdgeStyle;rounded=0;orthogonalLoop=1;jettySize=auto;html=1;" edge="1" parent="WIyWlLk6GJQsqaUBKTNV-1" source="HExbxud2L75M18XRyW7S-91" target="HExbxud2L75M18XRyW7S-97">
          <mxGeometry relative="1" as="geometry" />
        </mxCell>
        <mxCell id="HExbxud2L75M18XRyW7S-108" style="edgeStyle=orthogonalEdgeStyle;rounded=0;orthogonalLoop=1;jettySize=auto;html=1;" edge="1" parent="WIyWlLk6GJQsqaUBKTNV-1" source="HExbxud2L75M18XRyW7S-91" target="HExbxud2L75M18XRyW7S-107">
          <mxGeometry relative="1" as="geometry" />
        </mxCell>
        <mxCell id="HExbxud2L75M18XRyW7S-111" style="edgeStyle=orthogonalEdgeStyle;rounded=0;orthogonalLoop=1;jettySize=auto;html=1;" edge="1" parent="WIyWlLk6GJQsqaUBKTNV-1" source="HExbxud2L75M18XRyW7S-91" target="HExbxud2L75M18XRyW7S-110">
          <mxGeometry relative="1" as="geometry" />
        </mxCell>
        <mxCell id="HExbxud2L75M18XRyW7S-114" style="edgeStyle=orthogonalEdgeStyle;rounded=0;orthogonalLoop=1;jettySize=auto;html=1;" edge="1" parent="WIyWlLk6GJQsqaUBKTNV-1" source="HExbxud2L75M18XRyW7S-91" target="HExbxud2L75M18XRyW7S-113">
          <mxGeometry relative="1" as="geometry" />
        </mxCell>
        <mxCell id="HExbxud2L75M18XRyW7S-127" style="edgeStyle=orthogonalEdgeStyle;rounded=0;orthogonalLoop=1;jettySize=auto;html=1;entryX=0.5;entryY=0;entryDx=0;entryDy=0;" edge="1" parent="WIyWlLk6GJQsqaUBKTNV-1" source="HExbxud2L75M18XRyW7S-91" target="HExbxud2L75M18XRyW7S-126">
          <mxGeometry relative="1" as="geometry" />
        </mxCell>
        <mxCell id="HExbxud2L75M18XRyW7S-91" value="Showcase" style="rhombus;whiteSpace=wrap;html=1;" vertex="1" parent="WIyWlLk6GJQsqaUBKTNV-1">
          <mxGeometry x="960" y="190" width="130" height="70" as="geometry" />
        </mxCell>
        <mxCell id="HExbxud2L75M18XRyW7S-95" style="edgeStyle=orthogonalEdgeStyle;rounded=0;orthogonalLoop=1;jettySize=auto;html=1;" edge="1" parent="WIyWlLk6GJQsqaUBKTNV-1" source="HExbxud2L75M18XRyW7S-93" target="HExbxud2L75M18XRyW7S-94">
          <mxGeometry relative="1" as="geometry">
            <Array as="points">
              <mxPoint x="790" y="410" />
              <mxPoint x="790" y="410" />
            </Array>
          </mxGeometry>
        </mxCell>
        <mxCell id="HExbxud2L75M18XRyW7S-93" value="монголын тухай" style="rounded=0;whiteSpace=wrap;html=1;" vertex="1" parent="WIyWlLk6GJQsqaUBKTNV-1">
          <mxGeometry x="740" y="320" width="100" height="40" as="geometry" />
        </mxCell>
        <mxCell id="HExbxud2L75M18XRyW7S-94" value="монголын уламжлалт ахуй зан заншил гэх мэт" style="shape=cylinder3;whiteSpace=wrap;html=1;boundedLbl=1;backgroundOutline=1;size=15;" vertex="1" parent="WIyWlLk6GJQsqaUBKTNV-1">
          <mxGeometry x="760" y="430" width="70" height="100" as="geometry" />
        </mxCell>
        <mxCell id="HExbxud2L75M18XRyW7S-106" style="edgeStyle=orthogonalEdgeStyle;rounded=0;orthogonalLoop=1;jettySize=auto;html=1;" edge="1" parent="WIyWlLk6GJQsqaUBKTNV-1" source="HExbxud2L75M18XRyW7S-97" target="HExbxud2L75M18XRyW7S-102">
          <mxGeometry relative="1" as="geometry">
            <Array as="points">
              <mxPoint x="950" y="640" />
              <mxPoint x="519" y="640" />
            </Array>
          </mxGeometry>
        </mxCell>
        <mxCell id="HExbxud2L75M18XRyW7S-97" value="дархан цаазат газрууд&amp;nbsp;" style="rounded=0;whiteSpace=wrap;html=1;" vertex="1" parent="WIyWlLk6GJQsqaUBKTNV-1">
          <mxGeometry x="900" y="320" width="100" height="40" as="geometry" />
        </mxCell>
        <mxCell id="HExbxud2L75M18XRyW7S-102" value="дархан цаазат" style="shape=cylinder3;whiteSpace=wrap;html=1;boundedLbl=1;backgroundOutline=1;size=15;" vertex="1" parent="WIyWlLk6GJQsqaUBKTNV-1">
          <mxGeometry x="489" y="540" width="60" height="80" as="geometry" />
        </mxCell>
        <mxCell id="HExbxud2L75M18XRyW7S-103" value="дархан цаазгүй" style="shape=cylinder3;whiteSpace=wrap;html=1;boundedLbl=1;backgroundOutline=1;size=15;" vertex="1" parent="WIyWlLk6GJQsqaUBKTNV-1">
          <mxGeometry x="590" y="540" width="60" height="80" as="geometry" />
        </mxCell>
        <mxCell id="HExbxud2L75M18XRyW7S-109" style="edgeStyle=orthogonalEdgeStyle;rounded=0;orthogonalLoop=1;jettySize=auto;html=1;" edge="1" parent="WIyWlLk6GJQsqaUBKTNV-1" source="HExbxud2L75M18XRyW7S-107" target="HExbxud2L75M18XRyW7S-80">
          <mxGeometry relative="1" as="geometry">
            <Array as="points">
              <mxPoint x="1150" y="660" />
              <mxPoint x="225" y="660" />
            </Array>
          </mxGeometry>
        </mxCell>
        <mxCell id="HExbxud2L75M18XRyW7S-107" value="Сүүлийн үед хамгийн их зочилсон газрууд" style="rounded=0;whiteSpace=wrap;html=1;" vertex="1" parent="WIyWlLk6GJQsqaUBKTNV-1">
          <mxGeometry x="1090" y="310" width="120" height="60" as="geometry" />
        </mxCell>
        <mxCell id="HExbxud2L75M18XRyW7S-110" value="бүх цаг үеийн монголын хамгийн өндөр үнэлгээтэй газрууд&amp;nbsp;" style="rounded=0;whiteSpace=wrap;html=1;" vertex="1" parent="WIyWlLk6GJQsqaUBKTNV-1">
          <mxGeometry x="1270" y="310" width="120" height="60" as="geometry" />
        </mxCell>
        <mxCell id="HExbxud2L75M18XRyW7S-120" style="edgeStyle=orthogonalEdgeStyle;rounded=0;orthogonalLoop=1;jettySize=auto;html=1;" edge="1" parent="WIyWlLk6GJQsqaUBKTNV-1" source="HExbxud2L75M18XRyW7S-113" target="HExbxud2L75M18XRyW7S-119">
          <mxGeometry relative="1" as="geometry" />
        </mxCell>
        <mxCell id="HExbxud2L75M18XRyW7S-113" value="гадаадад аялахад зориулсан мэдээлэл" style="rhombus;whiteSpace=wrap;html=1;" vertex="1" parent="WIyWlLk6GJQsqaUBKTNV-1">
          <mxGeometry x="1460" y="290" width="160" height="100" as="geometry" />
        </mxCell>
        <mxCell id="HExbxud2L75M18XRyW7S-115" value="визний зөвлөгөө" style="shape=cylinder3;whiteSpace=wrap;html=1;boundedLbl=1;backgroundOutline=1;size=15;" vertex="1" parent="WIyWlLk6GJQsqaUBKTNV-1">
          <mxGeometry x="1390" y="545" width="60" height="80" as="geometry" />
        </mxCell>
        <mxCell id="HExbxud2L75M18XRyW7S-116" value="тухайн орны вальютын ханш ДНБ гэх мэт мэдээллүүд&amp;nbsp;" style="shape=cylinder3;whiteSpace=wrap;html=1;boundedLbl=1;backgroundOutline=1;size=15;" vertex="1" parent="WIyWlLk6GJQsqaUBKTNV-1">
          <mxGeometry x="1490" y="550" width="80" height="100" as="geometry" />
        </mxCell>
        <mxCell id="HExbxud2L75M18XRyW7S-121" style="edgeStyle=orthogonalEdgeStyle;rounded=0;orthogonalLoop=1;jettySize=auto;html=1;" edge="1" parent="WIyWlLk6GJQsqaUBKTNV-1" source="HExbxud2L75M18XRyW7S-119" target="HExbxud2L75M18XRyW7S-115">
          <mxGeometry relative="1" as="geometry" />
        </mxCell>
        <mxCell id="HExbxud2L75M18XRyW7S-122" style="edgeStyle=orthogonalEdgeStyle;rounded=0;orthogonalLoop=1;jettySize=auto;html=1;" edge="1" parent="WIyWlLk6GJQsqaUBKTNV-1" source="HExbxud2L75M18XRyW7S-119" target="HExbxud2L75M18XRyW7S-116">
          <mxGeometry relative="1" as="geometry" />
        </mxCell>
        <mxCell id="HExbxud2L75M18XRyW7S-124" style="edgeStyle=orthogonalEdgeStyle;rounded=0;orthogonalLoop=1;jettySize=auto;html=1;" edge="1" parent="WIyWlLk6GJQsqaUBKTNV-1" source="HExbxud2L75M18XRyW7S-119" target="HExbxud2L75M18XRyW7S-123">
          <mxGeometry relative="1" as="geometry" />
        </mxCell>
        <mxCell id="HExbxud2L75M18XRyW7S-119" value="улс орны жагсаалтууд&amp;nbsp;" style="shape=cylinder3;whiteSpace=wrap;html=1;boundedLbl=1;backgroundOutline=1;size=15;" vertex="1" parent="WIyWlLk6GJQsqaUBKTNV-1">
          <mxGeometry x="1490" y="420" width="80" height="80" as="geometry" />
        </mxCell>
        <mxCell id="HExbxud2L75M18XRyW7S-123" value="аялахад зориулсан мэдээ мэдээлэл&amp;nbsp;" style="shape=cylinder3;whiteSpace=wrap;html=1;boundedLbl=1;backgroundOutline=1;size=15;" vertex="1" parent="WIyWlLk6GJQsqaUBKTNV-1">
          <mxGeometry x="1594" y="550" width="76" height="90" as="geometry" />
        </mxCell>
        <mxCell id="HExbxud2L75M18XRyW7S-128" style="edgeStyle=orthogonalEdgeStyle;rounded=0;orthogonalLoop=1;jettySize=auto;html=1;entryX=0.5;entryY=1;entryDx=0;entryDy=0;entryPerimeter=0;" edge="1" parent="WIyWlLk6GJQsqaUBKTNV-1" source="HExbxud2L75M18XRyW7S-126" target="HExbxud2L75M18XRyW7S-83">
          <mxGeometry relative="1" as="geometry">
            <Array as="points">
              <mxPoint x="1740" y="730" />
              <mxPoint x="345" y="730" />
            </Array>
          </mxGeometry>
        </mxCell>
        <mxCell id="HExbxud2L75M18XRyW7S-126" value="аялагчдад зориулсан мэдээллийн сан&amp;nbsp;" style="rounded=0;whiteSpace=wrap;html=1;" vertex="1" parent="WIyWlLk6GJQsqaUBKTNV-1">
          <mxGeometry x="1680" y="300" width="120" height="60" as="geometry" />
        </mxCell>
        <mxCell id="HExbxud2L75M18XRyW7S-146" style="edgeStyle=orthogonalEdgeStyle;rounded=0;orthogonalLoop=1;jettySize=auto;html=1;entryX=0;entryY=0.5;entryDx=0;entryDy=0;" edge="1" parent="WIyWlLk6GJQsqaUBKTNV-1" source="HExbxud2L75M18XRyW7S-163" target="HExbxud2L75M18XRyW7S-144">
          <mxGeometry relative="1" as="geometry" />
        </mxCell>
        <mxCell id="HExbxud2L75M18XRyW7S-148" style="edgeStyle=orthogonalEdgeStyle;rounded=0;orthogonalLoop=1;jettySize=auto;html=1;" edge="1" parent="WIyWlLk6GJQsqaUBKTNV-1" source="HExbxud2L75M18XRyW7S-133" target="HExbxud2L75M18XRyW7S-150">
          <mxGeometry relative="1" as="geometry">
            <Array as="points">
              <mxPoint x="-710" y="410" />
              <mxPoint x="-710" y="570" />
            </Array>
          </mxGeometry>
        </mxCell>
        <mxCell id="HExbxud2L75M18XRyW7S-149" value="True" style="edgeLabel;html=1;align=center;verticalAlign=middle;resizable=0;points=[];" vertex="1" connectable="0" parent="HExbxud2L75M18XRyW7S-148">
          <mxGeometry x="0.1156" y="-2" relative="1" as="geometry">
            <mxPoint as="offset" />
          </mxGeometry>
        </mxCell>
        <mxCell id="HExbxud2L75M18XRyW7S-206" style="edgeStyle=orthogonalEdgeStyle;rounded=0;orthogonalLoop=1;jettySize=auto;html=1;exitX=0;exitY=0.5;exitDx=0;exitDy=0;" edge="1" parent="WIyWlLk6GJQsqaUBKTNV-1" source="HExbxud2L75M18XRyW7S-133">
          <mxGeometry relative="1" as="geometry">
            <mxPoint x="-670" y="410" as="targetPoint" />
          </mxGeometry>
        </mxCell>
        <mxCell id="HExbxud2L75M18XRyW7S-207" style="edgeStyle=orthogonalEdgeStyle;rounded=0;orthogonalLoop=1;jettySize=auto;html=1;exitX=1;exitY=0.5;exitDx=0;exitDy=0;" edge="1" parent="WIyWlLk6GJQsqaUBKTNV-1" source="HExbxud2L75M18XRyW7S-133">
          <mxGeometry relative="1" as="geometry">
            <mxPoint x="-540" y="410" as="targetPoint" />
          </mxGeometry>
        </mxCell>
        <mxCell id="HExbxud2L75M18XRyW7S-133" value="Хаяг байгаа&amp;nbsp;&lt;br&gt;эсэх" style="rhombus;whiteSpace=wrap;html=1;" vertex="1" parent="WIyWlLk6GJQsqaUBKTNV-1">
          <mxGeometry x="-662.5" y="370" width="115" height="80" as="geometry" />
        </mxCell>
        <mxCell id="HExbxud2L75M18XRyW7S-191" style="edgeStyle=orthogonalEdgeStyle;rounded=0;orthogonalLoop=1;jettySize=auto;html=1;" edge="1" parent="WIyWlLk6GJQsqaUBKTNV-1" source="HExbxud2L75M18XRyW7S-144" target="HExbxud2L75M18XRyW7S-160">
          <mxGeometry relative="1" as="geometry">
            <mxPoint x="-165" y="910" as="targetPoint" />
          </mxGeometry>
        </mxCell>
        <mxCell id="HExbxud2L75M18XRyW7S-202" style="edgeStyle=orthogonalEdgeStyle;rounded=0;orthogonalLoop=1;jettySize=auto;html=1;" edge="1" parent="WIyWlLk6GJQsqaUBKTNV-1" source="HExbxud2L75M18XRyW7S-144" target="HExbxud2L75M18XRyW7S-160">
          <mxGeometry relative="1" as="geometry">
            <mxPoint x="-230" y="900" as="targetPoint" />
            <Array as="points">
              <mxPoint x="-165" y="880" />
            </Array>
          </mxGeometry>
        </mxCell>
        <mxCell id="HExbxud2L75M18XRyW7S-203" value="True" style="edgeLabel;html=1;align=center;verticalAlign=middle;resizable=0;points=[];" vertex="1" connectable="0" parent="HExbxud2L75M18XRyW7S-202">
          <mxGeometry x="-0.1283" y="2" relative="1" as="geometry">
            <mxPoint as="offset" />
          </mxGeometry>
        </mxCell>
        <mxCell id="HExbxud2L75M18XRyW7S-144" value="Нэвтрэх" style="rhombus;whiteSpace=wrap;html=1;" vertex="1" parent="WIyWlLk6GJQsqaUBKTNV-1">
          <mxGeometry x="-240" y="380" width="150" height="65" as="geometry" />
        </mxCell>
        <mxCell id="HExbxud2L75M18XRyW7S-153" style="edgeStyle=orthogonalEdgeStyle;rounded=0;orthogonalLoop=1;jettySize=auto;html=1;" edge="1" parent="WIyWlLk6GJQsqaUBKTNV-1" source="HExbxud2L75M18XRyW7S-145" target="HExbxud2L75M18XRyW7S-152">
          <mxGeometry relative="1" as="geometry" />
        </mxCell>
        <mxCell id="HExbxud2L75M18XRyW7S-145" value="Санал сэтгэгдэл" style="shape=parallelogram;perimeter=parallelogramPerimeter;whiteSpace=wrap;html=1;fixedSize=1;" vertex="1" parent="WIyWlLk6GJQsqaUBKTNV-1">
          <mxGeometry x="-770" y="640" width="120" height="60" as="geometry" />
        </mxCell>
        <mxCell id="HExbxud2L75M18XRyW7S-151" style="edgeStyle=orthogonalEdgeStyle;rounded=0;orthogonalLoop=1;jettySize=auto;html=1;" edge="1" parent="WIyWlLk6GJQsqaUBKTNV-1" source="HExbxud2L75M18XRyW7S-150" target="HExbxud2L75M18XRyW7S-145">
          <mxGeometry relative="1" as="geometry" />
        </mxCell>
        <mxCell id="HExbxud2L75M18XRyW7S-150" value="Холбоо барих&lt;br&gt;хаяг" style="rounded=0;whiteSpace=wrap;html=1;" vertex="1" parent="WIyWlLk6GJQsqaUBKTNV-1">
          <mxGeometry x="-770" y="510" width="120" height="60" as="geometry" />
        </mxCell>
        <mxCell id="HExbxud2L75M18XRyW7S-152" value="Санал сэтгэгдэл хүлээн авах өгөгдлийн сан" style="shape=cylinder3;whiteSpace=wrap;html=1;boundedLbl=1;backgroundOutline=1;size=15;" vertex="1" parent="WIyWlLk6GJQsqaUBKTNV-1">
          <mxGeometry x="-740" y="740" width="70" height="100" as="geometry" />
        </mxCell>
        <mxCell id="HExbxud2L75M18XRyW7S-154" value="footer" style="rounded=0;whiteSpace=wrap;html=1;" vertex="1" parent="WIyWlLk6GJQsqaUBKTNV-1">
          <mxGeometry x="2030" y="110" width="120" height="60" as="geometry" />
        </mxCell>
        <mxCell id="HExbxud2L75M18XRyW7S-157" value="Application introduction&lt;br&gt;Co-pounder informatoin" style="shape=document;whiteSpace=wrap;html=1;boundedLbl=1;" vertex="1" parent="WIyWlLk6GJQsqaUBKTNV-1">
          <mxGeometry x="-945" y="380" width="120" height="80" as="geometry" />
        </mxCell>
        <mxCell id="HExbxud2L75M18XRyW7S-200" style="edgeStyle=orthogonalEdgeStyle;rounded=0;orthogonalLoop=1;jettySize=auto;html=1;" edge="1" parent="WIyWlLk6GJQsqaUBKTNV-1" source="HExbxud2L75M18XRyW7S-159" target="HExbxud2L75M18XRyW7S-5">
          <mxGeometry relative="1" as="geometry">
            <Array as="points">
              <mxPoint x="-30" y="90" />
              <mxPoint x="400" y="90" />
            </Array>
          </mxGeometry>
        </mxCell>
        <mxCell id="HExbxud2L75M18XRyW7S-201" style="edgeStyle=orthogonalEdgeStyle;rounded=0;orthogonalLoop=1;jettySize=auto;html=1;" edge="1" parent="WIyWlLk6GJQsqaUBKTNV-1" source="HExbxud2L75M18XRyW7S-159" target="HExbxud2L75M18XRyW7S-160">
          <mxGeometry relative="1" as="geometry">
            <mxPoint x="-1490" y="970" as="targetPoint" />
            <Array as="points">
              <mxPoint x="-1280" y="30" />
              <mxPoint x="-1280" y="870" />
            </Array>
          </mxGeometry>
        </mxCell>
        <mxCell id="HExbxud2L75M18XRyW7S-205" style="edgeStyle=orthogonalEdgeStyle;rounded=0;orthogonalLoop=1;jettySize=auto;html=1;entryX=0.5;entryY=1;entryDx=0;entryDy=0;entryPerimeter=0;" edge="1" parent="WIyWlLk6GJQsqaUBKTNV-1" source="HExbxud2L75M18XRyW7S-159" target="HExbxud2L75M18XRyW7S-152">
          <mxGeometry relative="1" as="geometry">
            <Array as="points">
              <mxPoint x="-1180" y="30" />
              <mxPoint x="-1180" y="850" />
              <mxPoint x="-705" y="850" />
            </Array>
          </mxGeometry>
        </mxCell>
        <mxCell id="HExbxud2L75M18XRyW7S-159" value="Админ" style="rounded=0;whiteSpace=wrap;html=1;" vertex="1" parent="WIyWlLk6GJQsqaUBKTNV-1">
          <mxGeometry x="-90" width="120" height="60" as="geometry" />
        </mxCell>
        <mxCell id="HExbxud2L75M18XRyW7S-204" style="edgeStyle=orthogonalEdgeStyle;rounded=0;orthogonalLoop=1;jettySize=auto;html=1;" edge="1" parent="WIyWlLk6GJQsqaUBKTNV-1" source="HExbxud2L75M18XRyW7S-160" target="HExbxud2L75M18XRyW7S-5">
          <mxGeometry relative="1" as="geometry">
            <Array as="points">
              <mxPoint x="-1470" y="900" />
              <mxPoint x="-1470" y="140" />
            </Array>
          </mxGeometry>
        </mxCell>
        <mxCell id="HExbxud2L75M18XRyW7S-160" value="User data&amp;nbsp;" style="shape=cylinder3;whiteSpace=wrap;html=1;boundedLbl=1;backgroundOutline=1;size=15;" vertex="1" parent="WIyWlLk6GJQsqaUBKTNV-1">
          <mxGeometry x="-437.5" y="820" width="90" height="100" as="geometry" />
        </mxCell>
        <mxCell id="HExbxud2L75M18XRyW7S-165" style="edgeStyle=orthogonalEdgeStyle;rounded=0;orthogonalLoop=1;jettySize=auto;html=1;exitX=1;exitY=0.5;exitDx=0;exitDy=0;" edge="1" parent="WIyWlLk6GJQsqaUBKTNV-1" source="HExbxud2L75M18XRyW7S-164" target="HExbxud2L75M18XRyW7S-144">
          <mxGeometry relative="1" as="geometry" />
        </mxCell>
        <mxCell id="HExbxud2L75M18XRyW7S-166" style="edgeStyle=orthogonalEdgeStyle;rounded=0;orthogonalLoop=1;jettySize=auto;html=1;exitX=0;exitY=0.5;exitDx=0;exitDy=0;" edge="1" parent="WIyWlLk6GJQsqaUBKTNV-1" source="HExbxud2L75M18XRyW7S-164" target="HExbxud2L75M18XRyW7S-163">
          <mxGeometry relative="1" as="geometry">
            <mxPoint x="-380" y="340" as="targetPoint" />
          </mxGeometry>
        </mxCell>
        <mxCell id="HExbxud2L75M18XRyW7S-164" value="Бүртгэгдэл байгаа&lt;br&gt;эсэх" style="rhombus;whiteSpace=wrap;html=1;" vertex="1" parent="WIyWlLk6GJQsqaUBKTNV-1">
          <mxGeometry x="-350" y="260" width="130" height="60" as="geometry" />
        </mxCell>
        <mxCell id="HExbxud2L75M18XRyW7S-189" style="edgeStyle=orthogonalEdgeStyle;rounded=0;orthogonalLoop=1;jettySize=auto;html=1;entryX=0.033;entryY=0.525;entryDx=0;entryDy=0;entryPerimeter=0;" edge="1" parent="WIyWlLk6GJQsqaUBKTNV-1" source="HExbxud2L75M18XRyW7S-167" target="HExbxud2L75M18XRyW7S-181">
          <mxGeometry relative="1" as="geometry">
            <Array as="points">
              <mxPoint x="-490" y="676" />
            </Array>
          </mxGeometry>
        </mxCell>
        <mxCell id="HExbxud2L75M18XRyW7S-167" value="И-Мэйл" style="shape=parallelogram;perimeter=parallelogramPerimeter;whiteSpace=wrap;html=1;fixedSize=1;" vertex="1" parent="WIyWlLk6GJQsqaUBKTNV-1">
          <mxGeometry x="-540" y="530" width="85" height="40" as="geometry" />
        </mxCell>
        <mxCell id="HExbxud2L75M18XRyW7S-168" value="" style="edgeStyle=orthogonalEdgeStyle;rounded=0;orthogonalLoop=1;jettySize=auto;html=1;entryX=0;entryY=0.5;entryDx=0;entryDy=0;" edge="1" parent="WIyWlLk6GJQsqaUBKTNV-1" source="HExbxud2L75M18XRyW7S-133" target="HExbxud2L75M18XRyW7S-163">
          <mxGeometry relative="1" as="geometry">
            <mxPoint x="-547" y="410" as="sourcePoint" />
            <mxPoint x="-160" y="403" as="targetPoint" />
          </mxGeometry>
        </mxCell>
        <mxCell id="HExbxud2L75M18XRyW7S-169" value="False" style="edgeLabel;html=1;align=center;verticalAlign=middle;resizable=0;points=[];" vertex="1" connectable="0" parent="HExbxud2L75M18XRyW7S-168">
          <mxGeometry x="-0.1705" y="2" relative="1" as="geometry">
            <mxPoint as="offset" />
          </mxGeometry>
        </mxCell>
        <mxCell id="HExbxud2L75M18XRyW7S-170" style="edgeStyle=orthogonalEdgeStyle;rounded=0;orthogonalLoop=1;jettySize=auto;html=1;" edge="1" parent="WIyWlLk6GJQsqaUBKTNV-1" source="HExbxud2L75M18XRyW7S-163" target="HExbxud2L75M18XRyW7S-167">
          <mxGeometry relative="1" as="geometry">
            <Array as="points">
              <mxPoint x="-480" y="373" />
            </Array>
          </mxGeometry>
        </mxCell>
        <mxCell id="HExbxud2L75M18XRyW7S-184" style="edgeStyle=orthogonalEdgeStyle;rounded=0;orthogonalLoop=1;jettySize=auto;html=1;" edge="1" parent="WIyWlLk6GJQsqaUBKTNV-1" source="HExbxud2L75M18XRyW7S-163" target="HExbxud2L75M18XRyW7S-172">
          <mxGeometry relative="1" as="geometry" />
        </mxCell>
        <mxCell id="HExbxud2L75M18XRyW7S-185" style="edgeStyle=orthogonalEdgeStyle;rounded=0;orthogonalLoop=1;jettySize=auto;html=1;" edge="1" parent="WIyWlLk6GJQsqaUBKTNV-1" source="HExbxud2L75M18XRyW7S-163" target="HExbxud2L75M18XRyW7S-171">
          <mxGeometry relative="1" as="geometry" />
        </mxCell>
        <mxCell id="HExbxud2L75M18XRyW7S-163" value="Хаяг нээх" style="rhombus;whiteSpace=wrap;html=1;" vertex="1" parent="WIyWlLk6GJQsqaUBKTNV-1">
          <mxGeometry x="-440" y="340" width="150" height="65" as="geometry" />
        </mxCell>
        <mxCell id="HExbxud2L75M18XRyW7S-188" style="edgeStyle=orthogonalEdgeStyle;rounded=0;orthogonalLoop=1;jettySize=auto;html=1;" edge="1" parent="WIyWlLk6GJQsqaUBKTNV-1" source="HExbxud2L75M18XRyW7S-171" target="HExbxud2L75M18XRyW7S-181">
          <mxGeometry relative="1" as="geometry">
            <Array as="points">
              <mxPoint x="-290" y="670" />
            </Array>
          </mxGeometry>
        </mxCell>
        <mxCell id="HExbxud2L75M18XRyW7S-171" value="Утас" style="shape=parallelogram;perimeter=parallelogramPerimeter;whiteSpace=wrap;html=1;fixedSize=1;" vertex="1" parent="WIyWlLk6GJQsqaUBKTNV-1">
          <mxGeometry x="-337.5" y="530" width="95" height="40" as="geometry" />
        </mxCell>
        <mxCell id="HExbxud2L75M18XRyW7S-186" style="edgeStyle=orthogonalEdgeStyle;rounded=0;orthogonalLoop=1;jettySize=auto;html=1;" edge="1" parent="WIyWlLk6GJQsqaUBKTNV-1" source="HExbxud2L75M18XRyW7S-172" target="HExbxud2L75M18XRyW7S-181">
          <mxGeometry relative="1" as="geometry" />
        </mxCell>
        <mxCell id="HExbxud2L75M18XRyW7S-172" value="Хаяг нээх" style="shape=parallelogram;perimeter=parallelogramPerimeter;whiteSpace=wrap;html=1;fixedSize=1;" vertex="1" parent="WIyWlLk6GJQsqaUBKTNV-1">
          <mxGeometry x="-435" y="530" width="85" height="40" as="geometry" />
        </mxCell>
        <mxCell id="HExbxud2L75M18XRyW7S-182" style="edgeStyle=orthogonalEdgeStyle;rounded=0;orthogonalLoop=1;jettySize=auto;html=1;" edge="1" parent="WIyWlLk6GJQsqaUBKTNV-1" source="HExbxud2L75M18XRyW7S-181" target="HExbxud2L75M18XRyW7S-160">
          <mxGeometry relative="1" as="geometry" />
        </mxCell>
        <mxCell id="HExbxud2L75M18XRyW7S-181" value="Баталгаажсан" style="rhombus;whiteSpace=wrap;html=1;" vertex="1" parent="WIyWlLk6GJQsqaUBKTNV-1">
          <mxGeometry x="-432.5" y="650" width="80" height="50" as="geometry" />
        </mxCell>
        <mxCell id="HExbxud2L75M18XRyW7S-197" style="edgeStyle=orthogonalEdgeStyle;rounded=0;orthogonalLoop=1;jettySize=auto;html=1;entryX=0.472;entryY=0.004;entryDx=0;entryDy=0;entryPerimeter=0;" edge="1" parent="WIyWlLk6GJQsqaUBKTNV-1" source="HExbxud2L75M18XRyW7S-144" target="HExbxud2L75M18XRyW7S-144">
          <mxGeometry relative="1" as="geometry">
            <Array as="points">
              <mxPoint x="-165" y="360" />
              <mxPoint x="-70" y="360" />
              <mxPoint x="-70" y="460" />
              <mxPoint x="-260" y="460" />
              <mxPoint x="-260" y="380" />
            </Array>
          </mxGeometry>
        </mxCell>
        <mxCell id="HExbxud2L75M18XRyW7S-198" value="False" style="edgeLabel;html=1;align=center;verticalAlign=middle;resizable=0;points=[];" vertex="1" connectable="0" parent="HExbxud2L75M18XRyW7S-197">
          <mxGeometry x="-0.2435" y="-1" relative="1" as="geometry">
            <mxPoint as="offset" />
          </mxGeometry>
        </mxCell>
      </root>
    </mxGraphModel>
  </diagram>
</mxfile>
